HIERARCHY
ROOT Hips
{
	OFFSET 0.000000 0.000000 0.000000
	CHANNELS 6 Xposition Yposition Zposition Yrotation Xrotation Zrotation
	JOINT Chest
	{
		OFFSET 0.000000 -0.009281 11.569106
		CHANNELS 3 Yrotation Xrotation Zrotation
		JOINT Chest2
		{
			OFFSET -0.000000 0.016865 9.269641
			CHANNELS 3 Yrotation Xrotation Zrotation
			JOINT Chest3
			{
				OFFSET -0.000000 0.000001 8.374491
				CHANNELS 3 Yrotation Xrotation Zrotation
				JOINT Chest4
				{
					OFFSET -0.000000 0.000001 8.374493
					CHANNELS 3 Yrotation Xrotation Zrotation
					JOINT Neck
					{
						OFFSET -0.000000 0.000002 12.152554
						CHANNELS 3 Yrotation Xrotation Zrotation
						JOINT Head
						{
							OFFSET -0.000000 0.040101 7.802319
							CHANNELS 3 Yrotation Xrotation Zrotation
							End Site
							{
								OFFSET -0.000000 0.020947 14.853096
							}
						}
					}
					JOINT RightCollar
					{
						OFFSET 2.894404 0.000001 6.791374
						CHANNELS 3 Yrotation Xrotation Zrotation
						JOINT RightShoulder
						{
							OFFSET 13.574684 0.000001 0.000000
							CHANNELS 3 Yrotation Xrotation Zrotation
							JOINT RightElbow
							{
								OFFSET 23.923903 0.000002 0.000000
								CHANNELS 3 Yrotation Xrotation Zrotation
								JOINT RightWrist
								{
									OFFSET 19.846718 0.012767 0.000000
									CHANNELS 3 Yrotation Xrotation Zrotation
									End Site
									{
										OFFSET 14.973145 0.000001 0.000000
									}
								}
							}
						}
					}
					JOINT LeftCollar
					{
						OFFSET -2.894404 0.000001 6.791374
						CHANNELS 3 Yrotation Xrotation Zrotation
						JOINT LeftShoulder
						{
							OFFSET -13.574684 -0.000001 0.000000
							CHANNELS 3 Yrotation Xrotation Zrotation
							JOINT LeftElbow
							{
								OFFSET -23.923903 -0.000002 0.000000
								CHANNELS 3 Yrotation Xrotation Zrotation
								JOINT LeftWrist
								{
									OFFSET -19.846718 0.012763 0.000000
									CHANNELS 3 Yrotation Xrotation Zrotation
									End Site
									{
										OFFSET -14.973145 -0.000001 0.000000
									}
								}
							}
						}
					}
				}
			}
		}
	}
	JOINT RightHip
	{
		OFFSET 9.469263 0.004643 0.045487
		CHANNELS 3 Yrotation Xrotation Zrotation
		JOINT RightKnee
		{
			OFFSET 0.000000 0.002661 -40.478676
			CHANNELS 3 Yrotation Xrotation Zrotation
			JOINT RightAnkle
			{
				OFFSET 0.000000 0.049106 -35.224068
				CHANNELS 3 Yrotation Xrotation Zrotation
				JOINT RightToe
				{
					OFFSET -0.000001 12.539529 -6.151390
					CHANNELS 3 Yrotation Xrotation Zrotation
					End Site
					{
						OFFSET -0.000001 5.044994 -1.291870
					}
				}
			}
		}
	}
	JOINT LeftHip
	{
		OFFSET -9.469263 0.004641 0.045487
		CHANNELS 3 Yrotation Xrotation Zrotation
		JOINT LeftKnee
		{
			OFFSET 0.000000 0.002661 -40.478676
			CHANNELS 3 Yrotation Xrotation Zrotation
			JOINT LeftAnkle
			{
				OFFSET 0.000000 0.049106 -35.224068
				CHANNELS 3 Yrotation Xrotation Zrotation
				JOINT LeftToe
				{
					OFFSET -0.000001 12.539529 -6.151390
					CHANNELS 3 Yrotation Xrotation Zrotation
					End Site
					{
						OFFSET -0.000001 5.044994 -1.291870
					}
				}
			}
		}
	}
}
MOTION
Frames: 14
Frame Time: 0.016667
53.117889 33.909336 83.288910 -2.820465 -9.991453 80.793877 -2.110836 -1.057784 -1.478589 -0.787657 -0.546561 -0.509282 -0.787658 -0.546561 -0.509282 -0.591194 -0.409265 -0.382663 -1.328234 -15.648361 -1.012931 -2.852013 7.085660 -2.380073 10.846505 6.511557 0.693455 39.891317 -14.406440 -18.200829 -36.607106 -63.884371 103.165855 -56.605794 33.719889 37.945519 -8.488703 3.761724 -5.365884 -41.017379 -15.215257 29.757341 23.862478 -61.016170 -89.621603 37.529871 25.726819 -68.187110 -26.200210 22.230801 -43.352642 16.868581 -26.165720 -31.208535 -8.523739 12.967341 -8.143693 -2.761084 -3.053263 -0.018647 -13.420319 6.732771 -0.822057 -4.288691 -24.808420 15.864914 26.098178 -10.427763 1.153150 -26.986400 32.617391 -8.245235 
52.888245 34.026230 83.366974 -3.132252 -9.839031 83.395141 -2.098105 -0.986512 -1.563216 -0.755361 -0.506066 -0.568060 -0.755360 -0.506066 -0.568059 -0.566987 -0.378849 -0.426669 -1.295955 -15.872453 -1.184838 -2.847839 6.664782 -2.681419 10.867550 6.780046 0.798616 39.766427 -14.250541 -18.475008 -36.790305 -63.936697 103.379168 -56.375828 33.625185 38.042067 -8.473377 3.822850 -5.389396 -41.209642 -15.306230 29.932696 23.679434 -61.022180 -89.451866 37.520667 25.761390 -68.104561 -25.989235 21.818734 -42.827783 16.080955 -25.731408 -29.730256 -6.374831 13.779848 -6.956016 -3.556919 -3.474596 0.045099 -13.160024 6.187320 -0.530226 -3.991723 -24.088882 15.628634 26.315867 -10.359266 0.417710 -27.159839 32.425247 -8.267587 
52.637585 34.123875 83.443390 -3.384143 -9.483294 86.029197 -1.942777 -0.984465 -1.672061 -0.699624 -0.470503 -0.624256 -0.699624 -0.470503 -0.624256 -0.525197 -0.352164 -0.468729 -1.263863 -16.081257 -1.347609 -2.840284 6.272444 -2.965788 10.913152 7.169435 0.892320 39.485289 -14.197244 -18.683839 -36.975591 -64.088935 103.728266 -56.178610 33.543134 38.121267 -8.457657 3.961045 -5.404089 -41.413937 -15.338477 30.147967 23.540240 -61.108022 -89.272499 37.538641 25.787938 -67.997122 -25.597374 21.315564 -42.171391 15.560868 -25.312111 -28.373871 -4.558224 14.635203 -5.995606 -4.019008 -3.761913 0.099830 -12.791051 5.599154 -0.331333 -3.671107 -23.415753 15.450018 26.513724 -10.311557 0.030079 -27.499325 32.126601 -8.332711 
52.391872 34.177452 83.518333 -3.667864 -9.131568 88.549441 -1.818295 -0.934234 -1.677004 -0.641342 -0.449462 -0.660170 -0.641343 -0.449463 -0.660171 -0.481491 -0.336405 -0.495598 -1.210368 -16.234962 -1.509622 -2.793837 5.983088 -3.242501 10.967176 7.531426 1.007360 39.217976 -14.282189 -18.822173 -37.119459 -64.179415 104.014888 -56.068719 33.538210 38.169737 -8.404619 4.113238 -5.371627 -41.590924 -15.354926 30.317127 23.327418 -61.215687 -89.073009 37.548521 25.722795 -67.881439 -25.034624 20.913694 -41.327497 14.926197 -24.516575 -27.502930 -3.022649 15.204824 -4.830605 -4.153923 -3.949803 0.129834 -12.485915 5.172080 -0.143461 -3.335751 -22.880266 15.404773 26.577499 -10.292165 -0.164138 -27.839848 31.838486 -8.383612 
52.136246 34.194160 83.588394 -3.883286 -8.791840 91.025316 -1.729969 -0.962206 -1.648514 -0.599622 -0.452942 -0.669805 -0.599621 -0.452942 -0.669805 -0.450212 -0.339051 -0.502796 -1.115405 -16.308801 -1.681351 -2.676285 5.843242 -3.524968 11.001982 7.745162 1.082953 39.051924 -14.447704 -18.807162 -37.187324 -64.153597 104.131821 -56.047088 33.605108 38.190238 -8.350221 4.157738 -5.397993 -41.710910 -15.287201 30.412705 23.063927 -61.191678 -88.892938 37.544454 25.533146 -67.761187 -24.484235 20.506687 -40.384924 14.294166 -23.745725 -27.194697 -1.515331 15.637115 -3.320252 -4.106988 -3.977716 0.123575 -12.198042 4.764422 0.002143 -3.049911 -22.441686 15.512056 26.492050 -10.257552 -0.329866 -28.057381 31.582720 -8.402061 
51.900719 34.160458 83.660347 -4.071481 -8.509911 93.486001 -1.705594 -1.024803 -1.597684 -0.583752 -0.479991 -0.656646 -0.583753 -0.479991 -0.656646 -0.438327 -0.359367 -0.492941 -0.981496 -16.316719 -1.857638 -2.490344 5.827229 -3.804229 10.982117 7.777640 1.077422 39.011971 -14.625942 -18.630657 -37.200946 -64.027703 104.103667 -56.061650 33.681978 38.202747 -8.313049 4.246303 -5.447469 -41.780752 -15.288202 30.490787 22.859479 -61.030807 -88.831132 37.499081 25.303141 -67.649117 -23.935392 20.106649 -39.446497 13.557722 -22.977293 -26.620872 -0.192268 15.881759 -2.117736 -3.931342 -3.868310 0.124210 -11.935355 4.384989 0.123639 -2.847407 -22.005022 15.587714 26.224259 -10.350318 -0.440833 -28.059667 31.410117 -8.392961 
51.701241 34.056145 83.737038 -4.268037 -8.248151 95.907706 -1.726698 -1.088070 -1.515871 -0.578350 -0.517563 -0.626721 -0.578350 -0.517564 -0.626721 -0.434290 -0.387581 -0.470528 -0.837373 -16.289480 -2.018940 -2.281426 5.877626 -4.053207 10.948859 7.768559 1.091437 39.026748 -14.792923 -18.478819 -37.162766 -63.880396 104.002806 -56.076949 33.702117 38.217026 -8.266781 4.392177 -5.476674 -41.832692 -15.269861 30.545794 22.825437 -60.877374 -88.929896 37.396618 25.094395 -67.575692 -23.292188 19.776451 -38.386035 12.768788 -22.058530 -25.490257 0.647816 15.884122 -1.675884 -3.610500 -3.654103 0.137107 -11.645085 4.104429 0.209650 -2.780074 -21.653334 15.601433 25.643214 -10.590528 -0.411314 -27.719186 31.366343 -8.345060 
51.518002 33.866848 83.812317 -4.405588 -8.020430 98.286286 -1.776779 -1.210730 -1.392679 -0.590132 -0.564746 -0.590920 -0.590132 -0.564747 -0.590920 -0.443142 -0.422991 -0.443733 -0.694982 -16.244818 -2.157342 -2.068257 5.961308 -4.260813 10.912418 7.796624 1.107342 39.035142 -14.930126 -18.408613 -37.132750 -63.784903 103.971284 -56.094749 33.678116 38.210185 -8.216257 4.516752 -5.479923 -41.831470 -15.150931 30.530051 22.876605 -60.809584 -89.057874 37.252367 24.944028 -67.624296 -22.616298 19.469965 -37.113800 12.019919 -21.061546 -24.246104 1.081207 15.695874 -1.608681 -3.167891 -3.350351 0.131975 -11.339277 3.873219 0.292272 -2.850143 -21.462107 15.669876 24.668331 -10.943068 -0.336547 -26.947157 31.527480 -8.204909 
51.359913 33.576881 83.887138 -4.492726 -7.800010 100.695191 -1.858290 -1.367409 -1.289121 -0.604785 -0.621300 -0.556426 -0.604784 -0.621299 -0.556427 -0.454150 -0.465425 -0.417929 -0.564508 -16.202544 -2.266271 -1.866596 6.041278 -4.417779 10.877191 7.857829 1.083390 39.016827 -15.032162 -18.374822 -37.042435 -63.780682 103.974788 -56.099988 33.611597 38.193520 -8.180713 4.608669 -5.483852 -41.775595 -15.057333 30.483261 22.901496 -60.708060 -89.126401 37.078068 24.838417 -67.782948 -21.942994 19.174363 -35.783084 11.267025 -20.130138 -23.267707 1.264552 15.459804 -1.528435 -2.604171 -3.030269 0.102571 -11.032553 3.673616 0.390820 -2.983323 -21.379952 15.967323 23.446405 -11.327269 -0.371095 -25.888560 31.833750 -8.007046 
51.236729 33.226742 83.960197 -4.556897 -7.552489 103.162474 -1.925699 -1.512822 -1.220751 -0.622634 -0.682205 -0.526602 -0.622635 -0.682205 -0.526602 -0.467558 -0.511118 -0.395642 -0.452459 -16.182298 -2.344194 -1.687156 6.080787 -4.522957 10.837471 7.891200 1.009764 39.007921 -15.096721 -18.352276 -36.926769 -63.793004 103.994514 -56.109007 33.538093 38.170741 -8.166629 4.705303 -5.521429 -41.711497 -15.044175 30.469259 22.956756 -60.490962 -89.192742 36.864447 24.778306 -67.973858 -21.234898 18.868071 -34.533457 10.505936 -19.267506 -22.431345 1.083033 15.157411 -1.536619 -1.878191 -2.660614 0.055049 -10.720415 3.506448 0.570270 -3.061094 -21.351306 16.425143 22.108901 -11.664489 -0.594412 -24.675032 32.180153 -7.738416 
51.220211 32.975368 84.045357 -4.729829 -7.112937 105.439461 -1.840448 -1.485926 -0.959441 -0.646557 -0.735422 -0.492333 -0.646557 -0.735422 -0.492333 -0.485504 -0.551047 -0.370023 -0.369235 -16.195557 -2.383445 -1.546046 6.058294 -4.565523 10.806196 7.894282 0.912755 39.055356 -15.145161 -18.315424 -36.719637 -63.780163 103.874979 -56.121725 33.491713 38.150329 -8.156740 4.813981 -5.548503 -41.622797 -15.047014 30.470915 23.069065 -60.240575 -89.336211 36.758948 24.695505 -68.089760 -20.476163 18.616034 -33.248090 9.796503 -18.446007 -21.554293 0.603916 14.936177 -1.963937 -0.959672 -2.444288 0.227704 -10.232201 3.546154 1.140031 -3.048874 -21.267855 16.783954 21.061571 -11.825819 -0.806217 -23.768201 32.255862 -7.554558 
50.963287 32.883457 84.125679 -4.752405 -6.673816 108.042610 -1.703807 -1.575412 -1.024768 -0.669076 -0.780242 -0.469249 -0.669077 -0.780242 -0.469245 -0.502400 -0.584668 -0.352788 -0.330603 -16.247830 -2.369765 -1.467274 5.963366 -4.524552 10.775284 7.907136 0.805559 39.160234 -15.193337 -18.342353 -36.527428 -63.715666 103.715125 -56.107047 33.464474 38.143670 -8.146772 4.899883 -5.530540 -41.504761 -14.960785 30.455974 23.176826 -60.075912 -89.524806 36.598824 24.594654 -68.179864 -20.006172 18.214537 -32.362242 9.122611 -17.649226 -20.613589 -0.110689 14.035614 -2.662918 -0.014096 -1.897030 0.461136 -9.684044 3.215808 1.515529 -2.910108 -20.954715 16.874445 20.188127 -12.095939 -0.718804 -23.308891 32.215110 -7.715113 
51.041370 32.930576 84.214134 -4.809468 -6.297974 110.062877 -1.639319 -1.594174 -0.505996 -0.688935 -0.807344 -0.447382 -0.688934 -0.807344 -0.447385 -0.517284 -0.605005 -0.336443 -0.336265 -16.343803 -2.309360 -1.452445 5.787062 -4.411428 10.740939 7.959812 0.701018 39.290564 -15.248821 -18.455233 -36.360522 -63.609818 103.545087 -56.063204 33.444380 38.170963 -8.139310 5.004018 -5.519285 -41.408182 -14.841035 30.500814 23.171526 -59.985406 -89.642025 36.417148 24.487873 -68.272679 -19.345913 17.805630 -30.950336 8.484982 -16.891382 -19.447852 -1.008106 13.323825 -3.750566 0.947444 -1.465192 0.773952 -9.233142 3.100538 2.459367 -2.691519 -20.510069 16.760982 19.442550 -12.150660 -0.550511 -22.833208 31.741443 -7.623287 
50.930565 32.929176 83.920052 -4.694144 -6.451530 112.634204 -1.965758 -1.956348 -0.528703 -0.707180 -0.827638 -0.438561 -0.707179 -0.827638 -0.438560 -0.530971 -0.620223 -0.329873 -0.372382 -16.466360 -2.206382 -1.478175 5.561578 -4.229467 10.733402 8.091186 0.646018 39.393195 -15.285011 -18.684034 -36.310819 -63.498821 103.473377 -55.991084 33.421393 38.222831 -8.152509 5.176333 -5.502166 -41.314209 -14.698576 30.639665 23.197633 -59.932499 -89.791422 36.201686 24.321470 -68.340503 -19.314919 17.029376 -29.946288 7.943081 -16.103276 -18.365730 -2.121235 11.660402 -5.083304 1.867887 -0.418858 1.237828 -9.305223 2.520579 2.834727 -2.407943 -19.994952 16.617681 18.858668 -11.629073 -0.191690 -22.482246 30.622965 -7.414967 
